<svg id="Layer_1" data-name="Layer 1" xmlns="http://www.w3.org/2000/svg" xmlns:xlink="http://www.w3.org/1999/xlink" viewBox="0 0 494.24 435.12"><defs><style>.cls-1{fill:#a3daf7;}.cls-2{fill:url(#linear-gradient);}.cls-3{fill:#956135;}</style><linearGradient id="linear-gradient" x1="257.48" y1="195.57" x2="254.45" y2="476.83" gradientUnits="userSpaceOnUse"><stop offset="0" stop-color="#f7b33f"/><stop offset="1" stop-color="#ee730f"/></linearGradient></defs><path class="cls-1" d="M503.12,332.78,386.21,437.44a18,18,0,0,0-5.53,17.42l4.29,18.7H127l4.28-18.7a18,18,0,0,0-5.53-17.42L8.88,332.78l24.34-8.42a9,9,0,0,0,5.9-10.42L21.76,231.55l68,16.25a9.05,9.05,0,0,0,10.87-6.54l8-30.74L161,262.4a9.06,9.06,0,0,0,15.33-7.81L158.78,141.33,195,156.6c4.14,1.75,13.3-7,13.3-7V101.15a2.26,2.26,0,0,0-1.8-2.22h-.08l-.24,0-.14,0H306a2.91,2.91,0,0,0-.32,0,2.26,2.26,0,0,0-1.93,2.24v48.49s9.15,8.71,13.29,7l36.21-15.27L335.7,254.59A9,9,0,0,0,351,262.4l52.39-51.88,8,30.74a9.06,9.06,0,0,0,10.87,6.54l68-16.25-17.34,82.39a9,9,0,0,0,5.9,10.42Z" transform="translate(-8.88 -38.44)"/><path class="cls-2" d="M503.12,332.78,386.21,437.44a18,18,0,0,0-5.53,17.42l4.29,18.7H127l4.28-18.7a18,18,0,0,0-5.53-17.42L8.88,332.78l24.34-8.42a9,9,0,0,0,5.9-10.42L21.76,231.55l68,16.25a9.05,9.05,0,0,0,10.87-6.54l8-30.74L161,262.4a9.06,9.06,0,0,0,15.33-7.81L164.9,180.88c53.44.64,45.37,6.64,86.93,6.45,36.17-.17,29-4.34,75-7.33,5.83-.37,12.69-.58,20.46-.34L335.7,254.59A9,9,0,0,0,351,262.4l52.39-51.88,8,30.74a9.06,9.06,0,0,0,10.87,6.54l68-16.25-17.34,82.39a9,9,0,0,0,5.9,10.42Z" transform="translate(-8.88 -38.44)"/><path class="cls-3" d="M308.44,40.69V96.63a2.25,2.25,0,0,1-2.25,2.25H306a2.91,2.91,0,0,0-.32,0,661.09,661.09,0,0,1-99.15,0h-.08l-.24,0-.14,0h-.22a2.26,2.26,0,0,1-2.27-2.25V40.69a2.26,2.26,0,0,1,2.27-2.25H306.19A2.25,2.25,0,0,1,308.44,40.69Z" transform="translate(-8.88 -38.44)"/></svg>